<svg aria-hidden="true" style="position:absolute;width:0;height:0;overflow:hidden" xmlns="http://www.w3.org/2000/svg">
  <defs>
    <symbol id="icon-twitter" viewBox="0 0 24 24">
      <path d="M20.833 5.262a6.685 6.685 0 0 1-.616.696.997.997 0 0 0-.278.908c.037.182.06.404.061.634 0 5.256-2.429 8.971-5.81 10.898-2.647 1.509-5.938 1.955-9.222 1.12a12.682 12.682 0 0 0 3.593-1.69 1 1 0 0 0-.156-1.741c-2.774-1.233-4.13-2.931-4.769-4.593-.417-1.084-.546-2.198-.52-3.227.021-.811.138-1.56.278-2.182.394.343.803.706 1.235 1.038a11.59 11.59 0 0 0 7.395 2.407c.543-.015.976-.457.976-1V7.519a3.459 3.459 0 0 1 1.196-2.674c.725-.631 1.636-.908 2.526-.846s1.753.463 2.384 1.188a1 1 0 0 0 1.033.304c.231-.067.463-.143.695-.228zm1.591-3.079a9.884 9.884 0 0 1-2.287 1.205 5.469 5.469 0 0 0-3.276-1.385 5.465 5.465 0 0 0-3.977 1.332A5.464 5.464 0 0 0 11 7.507a9.589 9.589 0 0 1-5.15-1.97 9.87 9.87 0 0 1-2.034-2.116 1 1 0 0 0-1.729.172s-.132.299-.285.76a13.57 13.57 0 0 0-.357 1.29 13.224 13.224 0 0 0-.326 2.571c-.031 1.227.12 2.612.652 3.996.683 1.775 1.966 3.478 4.147 4.823A10.505 10.505 0 0 1 1.045 18a1 1 0 0 0-.53 1.873c4.905 2.725 10.426 2.678 14.666.261C19.221 17.833 22 13.434 22 7.5a5.565 5.565 0 0 0-.023-.489 8.626 8.626 0 0 0 1.996-3.781 1 1 0 0 0-1.55-1.047z"/>
    </symbol>
    <symbol id="icon-instagram" viewBox="0 0 24 24">
      <path d="M7 1c-1.657 0-3.158.673-4.243 1.757S1 5.343 1 7v10c0 1.657.673 3.158 1.757 4.243S5.343 23 7 23h10c1.657 0 3.158-.673 4.243-1.757S23 18.657 23 17V7c0-1.657-.673-3.158-1.757-4.243S18.657 1 17 1zm0 2h10c1.105 0 2.103.447 2.828 1.172S21 5.895 21 7v10c0 1.105-.447 2.103-1.172 2.828S18.105 21 17 21H7c-1.105 0-2.103-.447-2.828-1.172S3 18.105 3 17V7c0-1.105.447-2.103 1.172-2.828S5.895 3 7 3zm9.989 8.223a5.054 5.054 0 0 0-1.194-2.567 4.962 4.962 0 0 0-3.009-1.644 4.904 4.904 0 0 0-1.477-.002c-1.366.202-2.521.941-3.282 1.967s-1.133 2.347-.93 3.712.941 2.521 1.967 3.282 2.347 1.133 3.712.93 2.521-.941 3.282-1.967 1.133-2.347.93-3.712zm-1.978.294c.122.82-.1 1.609-.558 2.227s-1.15 1.059-1.969 1.18-1.609-.1-2.227-.558-1.059-1.15-1.18-1.969.1-1.609.558-2.227 1.15-1.059 1.969-1.18a2.976 2.976 0 0 1 2.688.984c.375.428.63.963.72 1.543zM17.5 7.5a1 1 0 1 0 0-2 1 1 0 0 0 0 2z"/>
    </symbol>
    <symbol id="icon-facebook" viewBox="0 0 24 24">
      <path d="M17 3v2h-2c-.552 0-1.053.225-1.414.586S13 6.448 13 7v3a1 1 0 0 0 1 1h2.719l-.5 2H14a1 1 0 0 0-1 1v7h-2v-7a1 1 0 0 0-1-1H8v-2h2a1 1 0 0 0 1-1V7c0-1.105.447-2.103 1.172-2.828S13.895 3 15 3zm1-2h-3c-1.657 0-3.158.673-4.243 1.757S9 5.343 9 7v2H7a1 1 0 0 0-1 1v4a1 1 0 0 0 1 1h2v7a1 1 0 0 0 1 1h4a1 1 0 0 0 1-1v-7h2c.466 0 .858-.319.97-.757l1-4A1 1 0 0 0 18 9h-3V7h3a1 1 0 0 0 1-1V2a1 1 0 0 0-1-1z"/>
    </symbol>
  </defs>
</svg>
